<svg width="37" height="36" viewBox="0 0 37 36" xmlns="http://www.w3.org/2000/svg" xmlns:xlink="http://www.w3.org/1999/xlink">
    <defs>
        <path id="59fkylgkna" d="M0 0h16v14.495H0z"/>
    </defs>
    <g transform="translate(.295)" fill="none" fill-rule="evenodd">
        <rect stroke="#F83636" x=".5" y=".5" width="35" height="35" rx="5"/>
        <g transform="translate(9.705 10)">
            <mask id="lhy972pnfb" fill="#fff">
                <use xlink:href="#59fkylgkna"/>
            </mask>
            <path d="M8.868 11.473c0-.51-.379-.909-.868-.913a.902.902 0 0 0-.894.894.896.896 0 0 0 .884.886c.48.002.878-.39.878-.867m.004-5.98c.007-.134.021-.267.007-.404-.046-.443-.34-.76-.78-.826-.385-.06-.779.183-.94.574-.09.22-.077.448-.063.677L7.25 8.02c.028.452.046.905.09 1.355.033.341.31.564.655.564a.649.649 0 0 0 .658-.567c.02-.154.015-.311.024-.467l.196-3.412M0 12.337v-.5c.077-.339.169-.672.345-.977L5.91 1.234C6.203.726 6.611.344 7.171.15c1.152-.4 2.294.014 2.912 1.08 1.862 3.21 3.716 6.424 5.567 9.641.49.852.465 1.714-.07 2.537-.485.747-1.2 1.087-2.089 1.087-3.669-.002-7.337-.001-11.006-.001-.094 0-.188 0-.281-.01-.874-.085-1.518-.517-1.935-1.29-.146-.27-.203-.564-.269-.857" fill="#F83636" mask="url(#lhy972pnfb)"/>
        </g>
    </g>
</svg>
