<svg width="37" height="36" viewBox="0 0 37 36" xmlns="http://www.w3.org/2000/svg" xmlns:xlink="http://www.w3.org/1999/xlink">
    <defs>
        <path id="ef101bt3ya" d="M0 0h16.667v20H0z"/>
    </defs>
    <g transform="translate(.295)" fill="none" fill-rule="evenodd">
        <rect stroke="#ffb313" x=".5" y=".5" width="35" height="35" rx="5"/>
        <g transform="translate(9.705 8)">
            <mask id="zqtu7apg8b" fill="#fff">
                <use xlink:href="#ef101bt3ya"/>
            </mask>
            <path d="M15.007 11.673c.024-3.612-2.959-6.642-6.567-6.67-3.718-.03-6.733 2.916-6.764 6.61A6.667 6.667 0 0 0 8.31 18.33c3.683.018 6.672-2.953 6.697-6.657zM7.678 20c-.434-.08-.875-.111-1.302-.23C3.05 18.844.93 16.714.2 13.341-.39 10.61.345 8.164 2.192 6.064c.082-.093.073-.136-.009-.215-.33-.323-.653-.654-.982-.978-.077-.075-.11-.122-.013-.215.333-.32.658-.65.98-.98.078-.08.123-.078.2 0 .35.36.709.709 1.058 1.068.087.09.143.105.256.029A8.09 8.09 0 0 1 7.351 3.4c.122-.014.165-.055.164-.181a45.856 45.856 0 0 1 0-1.386c.002-.134-.047-.164-.17-.163-.449.006-.898 0-1.347.005-.115.001-.16-.027-.158-.152.007-.455.006-.91 0-1.366 0-.115.023-.157.15-.157 1.567.004 3.135.004 4.703 0 .125 0 .151.04.15.156-.006.455-.007.911 0 1.367.002.123-.04.153-.157.152-.442-.006-.885.002-1.327-.005-.14-.003-.195.028-.191.181.01.456.007.912 0 1.367 0 .125.041.168.164.182a8.042 8.042 0 0 1 3.652 1.361c.123.084.188.073.287-.03.339-.352.691-.69 1.031-1.04.087-.09.137-.097.228-.003.311.324.63.64.951.954.089.086.1.138.004.23-.324.311-.634.637-.957.948-.103.1-.117.154-.012.273 1.569 1.766 2.287 3.838 2.13 6.19-.24 3.586-2.8 6.608-6.3 7.48a7.714 7.714 0 0 1-1.19.203c-.05.005-.1.022-.15.034H7.677z" fill="#ffb313" mask="url(#zqtu7apg8b)"/>
        </g>
        <path d="M18.046 17.172c0-.768.006-1.536-.004-2.304-.002-.171.052-.2.209-.195 2.31.067 4.356 1.859 4.717 4.139.437 2.755-1.284 5.227-4.018 5.772-2.676.534-5.395-1.36-5.824-4.059-.034-.211-.046-.426-.075-.639-.024-.164.02-.22.203-.22 1.509.009 3.018.006 4.528.004.308 0 .263.037.264-.273.002-.741 0-1.483 0-2.225" fill="#ffb313"/>
    </g>
</svg>
