<svg width="37" height="36" viewBox="0 0 37 36" xmlns="http://www.w3.org/2000/svg" xmlns:xlink="http://www.w3.org/1999/xlink">
    <defs>
        <path id="ohoi84fnqa" d="M0 0h15.996v16H0z"/>
    </defs>
    <g transform="translate(.295)" fill="none" fill-rule="evenodd">
        <rect stroke="#0dcb81" x=".5" y=".5" width="35" height="35" rx="5"/>
        <g transform="translate(9.705 10)">
            <mask id="95ktn1fm1b" fill="#fff">
                <use xlink:href="#ohoi84fnqa"/>
            </mask>
            <path d="M4.106 7.152c-.429-.005-.75.27-.803.667-.041.31.08.555.307.761.86.78 1.717 1.563 2.576 2.345.418.38.838.374 1.238-.022l4.966-4.93a1.94 1.94 0 0 0 .128-.136.799.799 0 0 0-.22-1.21c-.343-.199-.711-.133-1.031.186-1.466 1.465-2.932 2.93-4.393 4.398-.098.098-.146.094-.243.003-.649-.602-1.304-1.197-1.955-1.796-.17-.156-.356-.272-.57-.266M8.467 16H7.53c-.04-.009-.08-.023-.12-.026a7.611 7.611 0 0 1-3.49-1.1C1.847 13.604.572 11.773.125 9.378.069 9.078.04 8.773 0 8.47v-.937c.01-.056.025-.11.028-.166.023-.349.075-.693.15-1.033.424-1.92 1.407-3.495 2.972-4.68C5.096.179 7.288-.31 9.678.189c1.913.399 3.469 1.401 4.658 2.948 1.285 1.67 1.82 3.572 1.618 5.665a7.729 7.729 0 0 1-1.95 4.471c-1.24 1.401-2.783 2.27-4.627 2.606-.301.055-.608.067-.91.121" fill="#0dcb81" mask="url(#95ktn1fm1b)"/>
        </g>
    </g>
</svg>
