<svg width="50" height="50" viewBox="0 0 50 50" fill="none" xmlns="http://www.w3.org/2000/svg">
<g clip-path="url(#clip0_312_2217)">
<path d="M49.0502 24.9058C49.0202 38.3058 38.1202 49.1558 24.7602 49.1058C11.3002 49.0458 0.450172 38.1358 0.500172 24.7058C0.550172 11.3058 11.4602 0.575837 25.0102 0.605837C38.3102 0.635837 49.0902 11.5258 49.0502 24.8958V24.9058ZM30.7702 34.1658C31.1102 34.7558 31.4302 35.2258 31.6702 35.7358C32.1302 36.6858 32.7702 36.9458 33.7202 36.4458C35.7002 35.4058 37.7202 34.4358 39.6702 33.3358C40.0602 33.1158 40.4002 32.4658 40.4402 31.9858C40.9202 26.0358 39.4102 20.5858 36.1602 15.6058C35.9302 15.2558 35.5702 14.8758 35.1902 14.7458C33.5402 14.1558 31.8702 13.6558 30.1902 13.1358C29.5702 12.9458 29.0402 13.0358 28.8402 13.7458C28.6102 14.5458 28.0802 14.5958 27.3402 14.5558C25.6702 14.4758 24.0002 14.4958 22.3302 14.5558C21.6702 14.5758 21.1102 14.6058 20.8902 13.8358C20.6802 13.0758 20.1602 12.9258 19.4702 13.1358C17.8402 13.6358 16.2002 14.1258 14.5802 14.6858C14.1902 14.8258 13.8002 15.1658 13.5802 15.5158C10.2902 20.5758 8.77017 26.1058 9.26017 32.1358C9.29017 32.5158 9.55017 33.0458 9.85017 33.2058C12.0302 34.3858 14.2402 35.5158 16.4902 36.5658C16.7702 36.6958 17.4402 36.4658 17.6702 36.1858C18.1802 35.5858 18.5202 34.8458 18.9602 34.1058C18.4002 33.8458 18.0002 33.6658 17.6002 33.4658C17.2202 33.2758 16.8502 33.0558 16.4802 32.8458C16.5102 32.7358 16.5402 32.6258 16.5602 32.5258C16.9002 32.5558 17.2702 32.5058 17.5802 32.6358C22.3902 34.5758 27.2002 34.5658 32.0202 32.6858C32.3602 32.5558 32.7602 32.5858 33.1402 32.5358C33.1602 32.6458 33.1902 32.7658 33.2102 32.8758C32.4302 33.2858 31.6502 33.6958 30.7502 34.1658H30.7702Z" fill="url(#paint0_linear_312_2217)"/>
<path d="M16.8799 26.1058C16.8799 24.3658 18.0899 22.9658 19.6399 22.9558C21.1699 22.9458 22.4699 24.3658 22.4699 26.0558C22.4699 27.7458 21.1899 29.2058 19.6899 29.2258C18.1699 29.2458 16.8899 27.8158 16.8899 26.1058H16.8799Z" fill="#2BB6D0"/>
<path d="M32.83 26.0358C32.83 27.7658 31.61 29.2058 30.1 29.2258C28.59 29.2458 27.28 27.8058 27.26 26.1158C27.24 24.4158 28.5 22.9758 30.02 22.9558C31.58 22.9358 32.82 24.2958 32.82 26.0358H32.83Z" fill="#2BB6D0"/>
</g>
<defs>
<linearGradient id="paint0_linear_312_2217" x1="0.5" y1="-5.76294" x2="56.1247" y2="0.448364" gradientUnits="userSpaceOnUse">
<stop stop-color="#1BE1CF"/>
<stop offset="0.484375" stop-color="#3F7BD0"/>
<stop offset="1" stop-color="#5637D1"/>
</linearGradient>
<clipPath id="clip0_312_2217">
<rect width="48.55" height="48.49" fill="white" transform="translate(0.5 0.605774)"/>
</clipPath>
</defs>
</svg>
