<svg width="21" height="20" viewBox="0 0 21 20" fill="none" xmlns="http://www.w3.org/2000/svg">
<path d="M10.3955 12.9058L13.493 17.2355L16.3541 15.7587L12.2862 10.048L10.3955 12.9058ZM18.9594 14.0219L18.9573 12.8387L14.5126 6.67261L12.8637 9.16475L17.1544 15.3458L18.7059 14.5451C18.858 14.4351 18.9502 14.2737 18.9594 14.099V14.0219Z" fill="#28A0F0"/>
<path d="M0.333496 15.1375L2.52457 16.2618L9.81493 5.84782L8.57743 5.81889C7.5235 5.80532 6.38778 6.0496 5.86671 6.80746L1.72635 12.5232L0.333496 14.4292V15.1375ZM14.0228 5.84746L10.7621 5.85818L3.3835 16.7025L5.96207 18.025L6.6635 16.9653L14.0228 5.84746Z" fill="white"/>
<path d="M20.3335 5.8329C20.3064 5.22576 19.9371 4.66933 19.3585 4.34576L11.2514 0.192902C10.6792 -0.0642408 9.96457 -0.0642413 9.39135 0.192544C9.3235 0.222902 1.50742 4.2604 1.50742 4.2604C1.39956 4.30649 1.29564 4.36132 1.19671 4.42433C0.680639 4.75397 0.365639 5.26612 0.333496 5.82897V14.429L1.72635 12.5229L1.71421 5.88719C1.716 5.8629 1.71921 5.83897 1.72385 5.8154C1.74127 5.73517 1.77478 5.65931 1.82236 5.5924C1.86993 5.52549 1.93058 5.46892 2.00064 5.42612C2.03742 5.40254 9.98742 1.30362 10.0128 1.29255C10.1093 1.25124 10.2131 1.22973 10.3181 1.2293C10.423 1.22887 10.527 1.24953 10.6239 1.29005L18.6264 5.39005C18.8156 5.49719 18.9342 5.67933 18.9449 5.87826V14.0983C18.9353 14.2729 18.8578 14.434 18.7056 14.5443L17.1542 15.345L16.3535 15.7583L13.4928 17.235L10.591 18.7329C10.4346 18.7829 10.2517 18.7804 10.0967 18.7243L6.66385 16.9654L5.96243 18.0247L9.04778 19.6068C9.14957 19.6586 9.24064 19.7043 9.31528 19.7418C9.43064 19.7997 9.50957 19.8383 9.53707 19.85C9.75635 19.945 10.0721 20 10.3564 20C10.6171 20 10.871 19.9572 11.1117 19.8736L19.5396 15.5261C20.0231 15.1925 20.3078 14.689 20.3335 14.1436V5.8329Z" fill="#96BEDC"/>
</svg>
