<svg width="21" height="20" viewBox="0 0 21 20" fill="none" xmlns="http://www.w3.org/2000/svg">
<path fill-rule="evenodd" clip-rule="evenodd" d="M9.22239 0C7.38144 0 5.88905 1.49239 5.88905 3.33333V4.44444C5.88905 6.28539 7.38144 7.77778 9.22239 7.77778V8.88889H7.00016C5.15922 8.88889 3.66683 10.3812 3.66683 12.2222C1.82589 12.2222 0.333496 13.7146 0.333496 15.5556V16.6667C0.333496 18.5077 1.82589 20 3.66683 20H5.88905C7.73 20 9.22239 18.5077 9.22239 16.6667V15.5556C9.22239 13.7146 7.73 12.2222 5.88905 12.2222C5.88905 11.6086 6.38652 11.1111 7.00016 11.1111H10.3335H13.6668C14.2805 11.1111 14.7779 11.6086 14.7779 12.2222C12.9369 12.2222 11.4446 13.7146 11.4446 15.5556V16.6667C11.4446 18.5077 12.9369 20 14.7779 20H17.0002C18.8412 20 20.3335 18.5077 20.3335 16.6667V15.5556C20.3335 13.7146 18.8412 12.2222 17.0002 12.2222C17.0002 10.3812 15.5078 8.88889 13.6668 8.88889H11.4446V7.77778C13.2856 7.77778 14.7779 6.28539 14.7779 4.44444V3.33333C14.7779 1.49239 13.2856 0 11.4446 0H9.22239ZM15.8891 14.4444H14.7779C14.1643 14.4444 13.6668 14.9419 13.6668 15.5556V16.6667C13.6668 17.2803 14.1643 17.7778 14.7779 17.7778H17.0002C17.6138 17.7778 18.1113 17.2803 18.1113 16.6667V15.5556C18.1113 14.9419 17.6138 14.4444 17.0002 14.4444H15.8891ZM4.77794 14.4444H3.66683C3.05318 14.4444 2.55572 14.9419 2.55572 15.5556V16.6667C2.55572 17.2803 3.05318 17.7778 3.66683 17.7778H5.88905C6.5027 17.7778 7.00016 17.2803 7.00016 16.6667V15.5556C7.00016 14.9419 6.5027 14.4444 5.88905 14.4444H4.77794ZM10.3335 5.55556H11.4446C12.0583 5.55556 12.5557 5.05809 12.5557 4.44444V3.33333C12.5557 2.71969 12.0583 2.22222 11.4446 2.22222H9.22239C8.60872 2.22222 8.11127 2.71969 8.11127 3.33333V4.44444C8.11127 5.05809 8.60872 5.55556 9.22239 5.55556H10.3335Z" fill="white"/>
</svg>
