<svg width="20" height="20" viewBox="0 0 20 20" fill="none" xmlns="http://www.w3.org/2000/svg">
<path fill-rule="evenodd" clip-rule="evenodd" d="M18 16.9151C18 17.4389 17.617 17.6189 17.067 17.6189H8.06699C7.51699 17.6189 7.00001 17.4389 7.00001 16.9151V14.7618H13.567C14.395 14.7618 15 14.3704 15 13.5818V7.14274H17.067C17.619 7.14274 18 7.81798 18 8.34369V16.9151ZM3.06699 12.857C2.51699 12.857 2.00001 12.677 2.00001 12.1532V3.58179C2.00001 3.05608 2.51399 2.38084 3.06699 2.38084H12.067C12.619 2.38084 13 3.05608 13 3.58179V12.1532C13 12.677 12.617 12.857 12.067 12.857H3.06699ZM18.567 5.23798H15V2.15322C15 1.36465 14.395 0.476074 13.567 0.476074H1.56701C0.742005 0.476074 0 1.3675 0 2.15322V13.5818C0 14.3675 0.742005 14.7618 1.56701 14.7618H5V18.3437C5 19.1294 5.742 19.5237 6.56701 19.5237H18.567C19.395 19.5237 20 19.1323 20 18.3437V6.91512C20 6.12655 19.395 5.23798 18.567 5.23798Z" fill="white"/>
</svg>
