<svg width="20" height="24" viewBox="0 0 20 24" fill="none" xmlns="http://www.w3.org/2000/svg">
<path fill-rule="evenodd" clip-rule="evenodd" d="M11.5 1.31892C10.5718 0.783017 9.4282 0.783018 8.5 1.31892L1.5 5.36037C0.571797 5.89627 0 6.88665 0 7.95844V16.0413C0 17.1131 0.571798 18.1035 1.5 18.6394L8.5 22.6809C9.4282 23.2168 10.5718 23.2168 11.5 22.6809L18.5 18.6394C19.4282 18.1035 20 17.1131 20 16.0413V7.95844C20 6.88665 19.4282 5.89627 18.5 5.36037L11.5 1.31892ZM5.82168 9.63486H7.55835V14.9214H6.09351L4.08501 12.5198V14.9214H2.34834V9.63486H3.81318L5.82168 12.0365V9.63486ZM12.7133 10.9792H10.1989V11.8854H12.4037V13.2297H10.1989V14.9214H8.41695V9.63486H12.7133V10.9792ZM14.4608 11.0169V14.9214H16.2428V11.0169H17.7907V9.63486H12.9129V11.0169H14.4608Z" fill="white"/>
</svg>
