<svg width="54" height="31" viewBox="0 0 54 31" fill="none" xmlns="http://www.w3.org/2000/svg">
<g clip-path="url(#clip0_312_2232)">
<path d="M53.5702 18.3308C53.5002 19.1208 53.4402 19.9008 53.3702 20.6908C53.1802 22.7808 52.9402 24.8708 52.2302 26.8708C52.0702 27.3208 51.8502 27.7608 51.5702 28.1508C51.1702 28.7008 50.6002 28.7108 50.2802 28.1008C49.8402 27.2608 49.4502 26.3508 49.2402 25.4308C48.3702 21.7308 48.2402 17.9608 48.3402 14.1808C48.4102 11.5208 48.6002 8.88081 49.2302 6.29081C49.4302 5.46081 49.7202 4.63081 50.1002 3.87081C50.5702 2.92081 51.2602 2.94081 51.7902 3.86081C52.4702 5.04081 52.7602 6.37081 52.9402 7.70081C53.1702 9.39081 53.3102 11.0908 53.4902 12.7808C53.5102 12.9808 53.5502 13.1808 53.5802 13.3808V18.3508L53.5702 18.3308Z" fill="url(#paint0_linear_312_2232)"/>
<path d="M15.46 0.810802C23.72 0.800802 30.45 7.5408 30.44 15.8508C30.44 24.1608 23.72 30.9008 15.45 30.8908C7.20001 30.8808 0.510011 24.1708 0.500011 15.8708C0.490011 7.5608 7.17001 0.820802 15.46 0.810802Z" fill="url(#paint1_linear_312_2232)"/>
<path d="M31.8902 15.8308C31.9202 12.4208 32.4502 9.11076 33.9902 6.01076C34.5602 4.86076 35.2802 3.81076 36.2602 2.96076C38.2302 1.24076 40.5802 1.25076 42.5202 3.00076C43.9702 4.30076 44.9002 5.96076 45.5002 7.77076C47.4602 13.6508 47.3902 19.4808 44.9602 25.2308C44.4402 26.4608 43.7002 27.5608 42.7302 28.5008C40.6402 30.5108 38.0902 30.5108 36.0102 28.5008C34.2802 26.8208 33.3802 24.6908 32.7402 22.4308C32.1302 20.2808 31.8702 18.0708 31.8802 15.8408L31.8902 15.8308Z" fill="url(#paint2_linear_312_2232)"/>
</g>
<defs>
<linearGradient id="paint0_linear_312_2232" x1="48.3115" y1="-0.170326" x2="54.4199" y2="-0.0289671" gradientUnits="userSpaceOnUse">
<stop stop-color="#1BE1CF"/>
<stop offset="0.484375" stop-color="#3F7BD0"/>
<stop offset="1" stop-color="#5637D1"/>
</linearGradient>
<linearGradient id="paint1_linear_312_2232" x1="0.5" y1="-3.13911" x2="34.8075" y2="0.670057" gradientUnits="userSpaceOnUse">
<stop stop-color="#1BE1CF"/>
<stop offset="0.484375" stop-color="#3F7BD0"/>
<stop offset="1" stop-color="#5637D1"/>
</linearGradient>
<linearGradient id="paint2_linear_312_2232" x1="31.8799" y1="-2.0405" x2="49.2245" y2="-1.01573" gradientUnits="userSpaceOnUse">
<stop stop-color="#1BE1CF"/>
<stop offset="0.484375" stop-color="#3F7BD0"/>
<stop offset="1" stop-color="#5637D1"/>
</linearGradient>
<clipPath id="clip0_312_2232">
<rect width="53.07" height="30.08" fill="white" transform="translate(0.5 0.810791)"/>
</clipPath>
</defs>
</svg>
