<svg width="49" height="50" viewBox="0 0 49 50" fill="none" xmlns="http://www.w3.org/2000/svg">
<path d="M22.7702 0.560791C23.7802 0.560791 24.8002 0.560791 25.8102 0.560791C25.9302 0.590791 26.0502 0.630791 26.1702 0.640791C29.8402 0.910791 33.2802 1.94079 36.4302 3.83079C42.8602 7.68079 46.8202 13.2908 48.2002 20.6708C48.3702 21.5508 48.4502 22.4508 48.5702 23.3408V26.3808C48.5402 26.5008 48.5002 26.6208 48.4902 26.7508C48.1702 30.9108 46.8802 34.7608 44.5502 38.2208C40.6802 43.9608 35.3302 47.5008 28.5102 48.7808C27.6102 48.9508 26.7002 49.0308 25.8002 49.1608H22.7602C22.1702 49.0908 21.5702 49.0208 20.9802 48.9408C16.1802 48.2508 11.9302 46.3508 8.29023 43.1408C4.03023 39.3808 1.37023 34.7008 0.370234 29.1008C0.210234 28.2008 0.120234 27.2908 -0.00976562 26.3908V23.3508C0.0602344 22.7708 0.120234 22.1908 0.200234 21.6208C0.900234 16.6808 2.88023 12.3308 6.23023 8.63079C9.99023 4.47079 14.6302 1.88079 20.1502 0.930791C21.0202 0.780791 21.9002 0.680791 22.7702 0.560791ZM35.5602 17.0708C35.5802 15.5508 34.9302 14.9708 33.7302 15.2508C32.8402 15.4608 31.9602 15.7308 31.1202 16.0808C24.2402 18.9708 17.3702 21.8908 10.5002 24.8108C10.1602 24.9608 9.82023 25.1608 9.54023 25.4008C9.02023 25.8308 9.07023 26.3508 9.64023 26.7208C9.84023 26.8508 10.0602 26.9508 10.2802 27.0208C11.6202 27.4308 12.9602 27.8708 14.3202 28.2208C14.8702 28.3708 15.5102 28.4708 16.0402 28.3508C16.7902 28.1808 17.5502 27.8608 18.1902 27.4408C20.6802 25.8308 23.1302 24.1508 25.6002 22.5008C26.4802 21.9108 27.3702 21.3308 28.2802 20.7908C28.4602 20.6808 28.7602 20.7908 29.0102 20.7908C28.9602 21.0208 28.9702 21.3008 28.8402 21.4608C28.4502 21.9308 28.0102 22.3708 27.5602 22.8008C25.6202 24.6608 23.6602 26.5008 21.7202 28.3508C21.4602 28.6008 21.2002 28.8608 20.9802 29.1508C20.4602 29.8108 20.4902 30.3608 21.1002 30.9508C21.3802 31.2208 21.7102 31.4508 22.0302 31.6808C24.2202 33.1708 26.4202 34.6708 28.6302 36.1408C29.1102 36.4608 29.6402 36.7508 30.1802 36.9308C31.2402 37.2808 31.9302 36.9608 32.3602 35.9308C32.5702 35.4308 32.7202 34.8808 32.8202 34.3408C33.5502 30.0608 34.2802 25.7808 34.9702 21.4908C35.2202 19.9308 35.3902 18.3608 35.5602 17.0708Z" fill="url(#paint0_linear_312_2228)"/>
<defs>
<linearGradient id="paint0_linear_312_2228" x1="-0.00976595" y1="-5.82102" x2="55.651" y2="0.385342" gradientUnits="userSpaceOnUse">
<stop stop-color="#1BE1CF"/>
<stop offset="0.484375" stop-color="#3F7BD0"/>
<stop offset="1" stop-color="#5637D1"/>
</linearGradient>
</defs>
</svg>
