<svg width="51" height="42" viewBox="0 0 51 42" fill="none" xmlns="http://www.w3.org/2000/svg">
<path d="M34.51 0.105774C34.94 0.105774 35.37 0.105774 35.8 0.105774C35.91 0.125774 36.02 0.165774 36.13 0.175774C38.62 0.415774 40.76 1.41577 42.54 3.17577C42.76 3.39577 42.96 3.40577 43.23 3.34577C45.29 2.88577 47.23 2.14577 49.07 1.11577C49.17 1.05577 49.28 1.01577 49.45 0.935774C48.62 3.38577 47.12 5.20577 45.06 6.61577C45.39 6.60577 45.68 6.56577 45.98 6.51577C47.64 6.23577 49.23 5.71577 50.79 5.09577V5.18577C49.41 7.15577 47.79 8.88577 45.85 10.3058C45.74 10.3858 45.65 10.5858 45.66 10.7258C45.76 13.4058 45.5 16.0658 44.84 18.6658C42.86 26.4858 38.65 32.7658 31.81 37.1658C27.54 39.9158 22.81 41.2658 17.76 41.5458C11.5 41.8958 5.69 40.4758 0.32 37.2258C0.21 37.1558 0.1 37.0858 0 37.0158C2.76 37.2058 5.43 36.9958 8.06 36.2558C10.68 35.5158 13.06 34.3158 15.3 32.5758C12.99 32.4758 10.99 31.7958 9.23 30.4758C7.48 29.1558 6.26 27.4558 5.54 25.3358C6.1 25.3858 6.6 25.4658 7.1 25.4758C7.61 25.4858 8.13 25.4658 8.65 25.4158C9.13 25.3658 9.6 25.2658 10.08 25.1858C4.13 23.6658 1.67 18.3358 1.9 14.7558C3.33 15.5058 4.83 15.9558 6.57 16.0258C4.27 14.3758 2.8 12.2858 2.21 9.62577C1.62 6.97577 2.01 4.46577 3.35 2.06577C9.04 8.74577 16.19 12.4058 24.95 13.0058C24.91 12.7658 24.89 12.6158 24.86 12.4558C23.89 6.93577 27.34 1.68577 32.79 0.405774C33.36 0.275774 33.94 0.205774 34.52 0.105774L34.51 0.105774Z" fill="url(#paint0_linear_312_2213)"/>
<defs>
<linearGradient id="paint0_linear_312_2213" x1="-3.37242e-07" y1="-5.34265" x2="57.838" y2="2.55496" gradientUnits="userSpaceOnUse">
<stop stop-color="#1BE1CF"/>
<stop offset="0.484375" stop-color="#3F7BD0"/>
<stop offset="1" stop-color="#5637D1"/>
</linearGradient>
</defs>
</svg>
