<svg width="12" height="12" viewBox="0 0 12 12" fill="none" xmlns="http://www.w3.org/2000/svg">
<path fill-rule="evenodd" clip-rule="evenodd" d="M6 12C2.68613 12 0 9.31388 0 6C0 2.68613 2.68613 0 6 0C9.31388 0 12 2.68613 12 6C12 9.31388 9.31388 12 6 12ZM8.5245 6L6 4.57125L3.4755 6L6 7.41788L8.5245 5.99925V6ZM6 7.89263C5.1255 7.39773 4.2505 6.90373 3.375 6.41062C4.15462 7.62862 5.1225 9.13313 6 10.4996C6.8775 9.1335 7.84538 7.62862 8.625 6.41062C7.7495 6.90373 6.8745 7.39773 6 7.89263ZM6 4.10925L8.625 5.57438L6 1.5L3.375 5.57475L6 4.10925Z" fill="#4F018B"/>
</svg>
